<?xml version="1.0" encoding="UTF-8" standalone="no"?><!DOCTYPE svg PUBLIC "-//W3C//DTD SVG 1.1//EN" "http://www.w3.org/Graphics/SVG/1.1/DTD/svg11.dtd"><svg width="100%" height="100%" viewBox="0 0 194 259" version="1.1" xmlns="http://www.w3.org/2000/svg" xmlns:xlink="http://www.w3.org/1999/xlink" xml:space="preserve" xmlns:serif="http://www.serif.com/" style="fill-rule:evenodd;clip-rule:evenodd;stroke-linejoin:round;stroke-miterlimit:2;"><path d="M125,133.374l37.5,21.65l-93.75,54.129l-37.5,-21.654l93.75,-54.125Z" style="fill:#cae062;fill-rule:nonzero;"/><path d="M125,39.624l37.5,21.65l0,93.75l-37.5,-21.65l0,-93.75Z" style="fill:#7b893d;fill-rule:nonzero;"/><path d="M156.25,21.582l37.5,21.65l-31.25,18.042l-37.5,-21.65l31.25,-18.042Z" style="fill:#cae062;fill-rule:nonzero;"/><path d="M125,8.374l37.5,21.65l-93.75,54.129l-37.5,-21.654l93.75,-54.125Z" style="fill:#cae062;fill-rule:nonzero;"/><path d="M31.25,-0l37.5,21.65l-31.25,18.042l-37.5,-21.65l31.25,-18.042Z" style="fill:#cae062;fill-rule:nonzero;"/><path d="M-0,18.042l37.5,21.65l0,218.75l-37.5,-21.65l-0,-218.75Z" style="fill:#7b893d;fill-rule:nonzero;"/><path d="M162.5,61.275l31.25,-18.042l0,93.75l-31.25,18.042l0,-93.75Zm-125,-21.583l31.25,-18.042l0,62.5l93.75,-54.125l0,31.25l-93.75,54.125l0,93.75l93.75,-54.125l0,31.25l-125,72.167l0,-218.75Z" style="fill:#7248ee;fill-rule:nonzero;"/></svg>