<svg width="109" height="64" viewBox="0 0 109 64" fill="none" xmlns="http://www.w3.org/2000/svg">
<rect x="0.5" y="0.5" width="108" height="63" rx="5.5" fill="white" stroke="white"/>
<path fill-rule="evenodd" clip-rule="evenodd" d="M30.8298 40.6445H25.9851C25.6536 40.6445 25.3717 40.8508 25.32 41.131L23.3606 51.7685C23.3216 51.9785 23.5114 52.1676 23.7601 52.1676H26.073C26.4045 52.1676 26.6865 51.9613 26.7382 51.6806L27.2666 48.8116C27.3176 48.5306 27.6003 48.3245 27.9311 48.3245H29.4647C32.6561 48.3245 34.4978 47.0022 34.979 44.3818C35.1957 43.2354 34.9882 42.3346 34.3611 41.7036C33.6726 41.0111 32.4512 40.6445 30.8298 40.6445ZM31.3887 44.5297C31.1238 46.0183 29.7956 46.0183 28.5113 46.0183H27.7802L28.2931 43.2382C28.3235 43.0704 28.4935 42.9466 28.6919 42.9466H29.027C29.9018 42.9466 30.7272 42.9466 31.1537 43.3735C31.4077 43.6284 31.4857 44.0068 31.3887 44.5297ZM45.3116 44.482H42.9916C42.7939 44.482 42.6231 44.6058 42.5926 44.7739L42.49 45.3295L42.3277 45.1282C41.8255 44.5039 40.7057 44.2953 39.5878 44.2953C37.0239 44.2953 34.8344 45.9579 34.4079 48.2903C34.1863 49.4535 34.5014 50.566 35.2721 51.3418C35.9792 52.0551 36.9908 52.3523 38.1943 52.3523C40.2599 52.3523 41.4056 51.2149 41.4056 51.2149L41.302 51.7671C41.263 51.9782 41.4528 52.1674 41.7 52.1674H43.7898C44.1222 52.1674 44.4025 51.961 44.455 51.6803L45.7089 44.8812C45.7486 44.672 45.5594 44.482 45.3116 44.482ZM42.0776 48.3484C41.8537 49.4833 40.8017 50.2451 39.4603 50.2451C38.7866 50.2451 38.248 50.0601 37.9025 49.7095C37.5596 49.3615 37.4291 48.8657 37.5383 48.3139C37.7474 47.1885 38.8171 46.402 40.1382 46.402C40.7968 46.402 41.3325 46.5892 41.6852 46.9429C42.0386 47.3003 42.1789 47.7988 42.0776 48.3484ZM55.336 44.4817H57.6674C57.994 44.4817 58.1844 44.7953 57.9989 45.0246L50.2449 54.6084C50.1194 54.7636 49.9125 54.8559 49.6916 54.8559H47.3631C47.0352 54.8559 46.8438 54.5399 47.0336 54.31L49.448 51.3918L46.8802 44.939C46.7913 44.7147 46.9848 44.4817 47.2634 44.4817H49.5542C49.8519 44.4817 50.1145 44.649 50.2004 44.893L51.5631 48.7902L54.7787 44.7346C54.9046 44.5763 55.1137 44.4817 55.336 44.4817Z" fill="#444444" fill-opacity="0.19"/>
<path fill-rule="evenodd" clip-rule="evenodd" d="M80.6116 51.7691L82.5998 40.937C82.6303 40.7689 82.8004 40.6451 82.9981 40.6445H85.2365C85.4836 40.6445 85.6734 40.8343 85.6344 41.0443L83.6737 51.6812C83.6226 51.9619 83.3407 52.1682 83.0086 52.1682H81.0095C80.7624 52.1682 80.5726 51.979 80.6116 51.7691ZM65.3846 40.6451H60.5391C60.2084 40.6451 59.9264 40.8514 59.8746 41.1316L57.9153 51.7691C57.8762 51.979 58.0661 52.1682 58.3136 52.1682H60.7997C61.0309 52.1682 61.2285 52.0239 61.2646 51.8274L61.8206 48.8121C61.8717 48.5311 62.1543 48.3251 62.4851 48.3251H64.018C67.2099 48.3251 69.0513 47.0027 69.5329 44.3824C69.7502 43.236 69.5414 42.3352 68.9146 41.7042C68.2265 41.0117 67.006 40.6451 65.3846 40.6451ZM65.9436 44.5303C65.6794 46.0189 64.351 46.0189 63.066 46.0189H62.3356L62.8493 43.2388C62.8798 43.0709 63.0483 42.9471 63.2473 42.9471H63.5823C64.4566 42.9471 65.2827 42.9471 65.7089 43.3741C65.9632 43.629 66.0406 44.0073 65.9436 44.5303ZM79.8651 44.4826H77.5468C77.3475 44.4826 77.1783 44.6064 77.1485 44.7745L77.0459 45.33L76.8829 45.1288C76.3807 44.5045 75.2615 44.2959 74.1437 44.2959C71.5798 44.2959 69.3909 45.9585 68.9644 48.2909C68.7435 49.4541 69.0572 50.5665 69.8279 51.3424C70.5363 52.0556 71.5467 52.3529 72.7501 52.3529C74.8157 52.3529 75.9611 51.2155 75.9611 51.2155L75.8578 51.7676C75.8188 51.9787 76.0086 52.1679 76.2575 52.1679H78.3463C78.6771 52.1679 78.959 51.9616 79.0108 51.6809L80.2654 44.8817C80.3037 44.6726 80.1139 44.4826 79.8651 44.4826ZM76.6315 48.349C76.4089 49.4838 75.3556 50.2457 74.0139 50.2457C73.3415 50.2457 72.8019 50.0607 72.4561 49.7101C72.1132 49.362 71.9843 48.8663 72.0922 48.3144C72.3023 47.1891 73.3707 46.4026 74.6918 46.4026C75.3507 46.4026 75.886 46.5898 76.2391 46.9435C76.5938 47.3008 76.7341 47.7994 76.6315 48.349Z" fill="#B9B8BC"/>
<path d="M48.7576 36.8368L49.3532 33.5975L48.0265 33.5711H41.6914L46.094 9.66758C46.1075 9.59542 46.1521 9.52813 46.217 9.48036C46.2819 9.43258 46.3651 9.40625 46.4517 9.40625H57.1337C60.6801 9.40625 63.1272 10.0381 64.4051 11.2853C65.004 11.8704 65.3856 12.4818 65.5702 13.1547C65.7636 13.8607 65.7672 14.7042 65.578 15.7329L65.5643 15.808V16.4672L66.1635 16.7578C66.668 16.987 67.0686 17.2493 67.3761 17.5496C67.8888 18.0499 68.2203 18.6857 68.3602 19.4394C68.5048 20.2147 68.457 21.1371 68.2203 22.1815C67.9469 23.3829 67.505 24.4292 66.9083 25.2854C66.3592 26.0743 65.66 26.7285 64.8299 27.2357C64.0373 27.7174 63.0954 28.0831 62.0307 28.3172C60.9987 28.5471 59.8225 28.6633 58.5322 28.6633H57.7008C57.1065 28.6633 56.5289 28.8466 56.0758 29.1753C55.6215 29.5108 55.3205 29.9689 55.2284 30.4702L55.1658 30.7619L54.1135 36.4711L54.0656 36.6808C54.0532 36.7473 54.0315 36.7804 53.9997 36.8029C53.9712 36.8231 53.9302 36.8368 53.8903 36.8368H48.7576Z" fill="#444444" fill-opacity="0.19"/>
<path d="M66.7314 15.8867C66.6996 16.0613 66.6632 16.2397 66.6222 16.423C65.2133 22.6161 60.394 24.7556 54.2385 24.7556H51.1045C50.3519 24.7556 49.7175 25.2236 49.6002 25.8594L47.9955 34.5734L47.5411 37.0433C47.4648 37.4607 47.8408 37.8371 48.3325 37.8371H53.8913C54.5496 37.8371 55.1085 37.4275 55.2121 36.8717L55.2669 36.6298L56.3136 30.9428L56.3808 30.6309C56.4831 30.0731 57.0433 29.6636 57.7016 29.6636H58.533C63.9184 29.6636 68.1345 27.7913 69.3668 22.3733C69.8814 20.11 69.6149 18.2202 68.2528 16.8911C67.8408 16.4903 67.3294 16.1578 66.7314 15.8867Z" fill="#B9B8BC"/>
<path d="M65.2592 15.3822C65.0442 15.3285 64.8219 15.2798 64.5941 15.2359C64.3653 15.193 64.1306 15.155 63.8893 15.1218C63.0442 15.0048 62.1184 14.9492 61.1264 14.9492H52.7539C52.5477 14.9492 52.352 14.9892 52.1766 15.0614C51.7904 15.2203 51.5036 15.5333 51.4341 15.9165L49.6527 25.5763L49.6016 25.8581C49.7189 25.2223 50.3533 24.7542 51.1059 24.7542H54.2399C60.3954 24.7542 65.215 22.6138 66.6236 16.4217C66.6656 16.2383 66.701 16.0599 66.7328 15.8854C66.3765 15.7235 65.9903 15.585 65.5746 15.467C65.4723 15.4378 65.3664 15.4095 65.2592 15.3822Z" fill="#B9B8BC"/>
<path d="M51.4329 15.9177C51.5024 15.5345 51.7895 15.2215 52.1754 15.0635C52.3521 14.9913 52.5468 14.9514 52.7527 14.9514H61.1255C62.1175 14.9514 63.0433 15.0069 63.8881 15.124C64.1297 15.1571 64.3644 15.1952 64.5932 15.238C64.821 15.2819 65.043 15.3307 65.2583 15.3843C65.3652 15.4116 65.4711 15.4399 65.5747 15.4682C65.9904 15.5862 66.3765 15.7256 66.7329 15.8865C67.1522 13.5979 66.7296 12.0396 65.2846 10.6286C63.6914 9.0752 60.8157 8.41016 57.1363 8.41016H46.4539C45.7022 8.41016 45.0613 8.8782 44.945 9.51497L40.4958 33.6643C40.4079 34.142 40.8384 34.5732 41.4009 34.5732H47.996L49.6518 25.5774L51.4329 15.9177Z" fill="#444444" fill-opacity="0.19"/>
</svg>
